<?xml version="1.0" encoding="UTF-8"?>
<svg version="1.1" xmlns="http://www.w3.org/2000/svg" width="512" height="512">
<path d="M0 0 C168.96 0 337.92 0 512 0 C512 168.96 512 337.92 512 512 C343.04 512 174.08 512 0 512 C0 343.04 0 174.08 0 0 Z " fill="#012146" transform="translate(0,0)"/>
<path d="M0 0 C168.96 0 337.92 0 512 0 C512 168.96 512 337.92 512 512 C343.04 512 174.08 512 0 512 C0 343.04 0 174.08 0 0 Z M218.22900391 14.59423828 C216.08796379 14.98398731 213.94703234 15.31250172 211.79296875 15.62109375 C166.462522 22.35744026 123.86571883 45.37075354 90.68359375 76.50390625 C88.39715027 78.63059822 86.07012916 80.67072561 83.6875 82.6875 C79.71788024 86.14464836 76.38262529 89.97723646 73 94 C72.18789062 94.92425781 71.37578125 95.84851563 70.5390625 96.80078125 C38.64350861 133.28110283 18.93033262 179.00289912 13 227 C12.85751831 228.08063721 12.85751831 228.08063721 12.7121582 229.18310547 C11.76507892 237.22612365 11.80254309 245.28899527 11.8125 253.375 C11.81243958 254.12645294 11.81237915 254.87790588 11.81231689 255.65213013 C11.83023612 271.31082585 12.78312416 286.63275874 16 302 C16.25786967 303.39297823 16.51423979 304.78623446 16.76953125 306.1796875 C19.05265942 318.23970877 22.60117434 329.55183417 27 341 C27.4316748 342.12583496 27.4316748 342.12583496 27.87207031 343.27441406 C38.99676908 371.94435203 54.73836927 396.93027006 75 420 C75.86753906 420.99128906 76.73507813 421.98257812 77.62890625 423.00390625 C82.46661833 428.43248393 87.43498627 433.33562733 93 438 C94.00583426 438.88844701 95.00956501 439.77927849 96.01171875 440.671875 C132.74707455 473.17823732 178.51294633 492.75005335 227 499 C228.03060547 499.14465698 228.03060547 499.14465698 229.08203125 499.29223633 C237.34125806 500.30215703 245.65790381 500.1860684 253.96533203 500.18530273 C256.59814918 500.18747782 259.23053849 500.20565284 261.86328125 500.22460938 C277.15092521 500.27771019 291.56290915 498.61033045 306.5 495.1875 C308.24518921 494.79328857 308.24518921 494.79328857 310.02563477 494.39111328 C318.85835917 492.35482468 327.41959269 489.91353387 336 487 C337.01191406 486.69707031 338.02382813 486.39414062 339.06640625 486.08203125 C347.20106405 483.60155637 354.52393394 479.90419105 362.04345703 475.99951172 C363.83496259 475.08431035 365.64901807 474.21360243 367.46484375 473.34765625 C387.36707904 463.84938993 404.58668574 450.92281244 420.765625 436.046875 C423.03694957 433.96615109 425.35881431 431.95361043 427.6875 429.9375 C431.84663214 426.23565464 435.4276494 422.26073458 439 418 C439.81082031 417.07703125 440.62164062 416.1540625 441.45703125 415.203125 C453.06756472 401.92246745 462.79628564 387.60527055 471 372 C471.3398291 371.36271973 471.6796582 370.72543945 472.02978516 370.06884766 C477.87575948 359.0506818 482.59455239 347.6606074 487 336 C487.474375 334.77023437 487.94875 333.54046875 488.4375 332.2734375 C492.68043706 320.52580552 494.78507321 308.26097034 497 296 C497.13035645 295.2790918 497.26071289 294.55818359 497.39501953 293.81542969 C499.72421267 280.63171056 500.23515616 267.363312 500.25 254 C500.25133942 253.2793335 500.25267883 252.55866699 500.25405884 251.81616211 C500.24950039 240.43954293 499.49915921 229.42597248 497.40576172 218.22900391 C497.01601269 216.08796379 496.68749828 213.94703234 496.37890625 211.79296875 C489.63521389 166.41309003 466.58842292 123.83251214 435.4296875 90.6171875 C433.48217645 88.51938621 431.62911965 86.39690227 429.8125 84.1875 C427.25329808 81.17412985 424.44840186 78.61568343 421.43359375 76.0625 C419.59020587 74.50020658 417.7767034 72.9190809 415.97265625 71.3125 C401.84282643 58.81733818 386.69574603 48.738031 370 40 C369.33145996 39.64454102 368.66291992 39.28908203 367.97412109 38.92285156 C344.20314288 26.32464713 319.20875021 18.66747155 292.6875 14.4375 C291.93533203 14.31181641 291.18316406 14.18613281 290.40820312 14.05664062 C278.33914529 12.1276113 266.20198639 11.76355385 254 11.75 C252.91900024 11.74799088 252.91900024 11.74799088 251.81616211 11.74594116 C240.43954293 11.75049961 229.42597248 12.50084079 218.22900391 14.59423828 Z " fill="#FEFEFE" transform="translate(0,0)"/>
<path d="M0 0 C15.51 0 31.02 0 47 0 C56.56578836 23.31660913 66.09276457 46.64266429 75.42724609 70.05249023 C80.13521089 81.85721661 84.90609048 93.63436627 89.71484375 105.3984375 C92.51477701 112.25044808 95.2688614 119.12029644 98 126 C100.16585684 123.83414316 100.80892045 122.34116365 101.92919922 119.51757812 C102.30568604 118.57613953 102.68217285 117.63470093 103.07006836 116.66473389 C103.47749268 115.6306842 103.88491699 114.59663452 104.3046875 113.53125 C104.73612061 112.44837708 105.16755371 111.36550415 105.61206055 110.24981689 C107.03775194 106.66839841 108.45627342 103.08418251 109.875 99.5 C110.86289064 97.01572815 111.85123795 94.5316439 112.84033203 92.04785156 C114.88310532 86.91638353 116.92303022 81.78379296 118.9609375 76.65039062 C123.1617072 66.07023825 127.38109708 55.49753105 131.60601807 44.92700195 C132.83927812 41.83943271 134.06995642 38.75084452 135.30029297 35.66210938 C136.07249574 33.72782649 136.84478928 31.79357984 137.6171875 29.859375 C137.94356201 29.03826233 138.26993652 28.21714966 138.60620117 27.37115479 C142.27800873 18.19096275 146.16088361 9.11790143 150 0 C165.18 0 180.36 0 196 0 C194.14779425 5.55661726 192.33909014 10.80866084 190.09375 16.171875 C189.81718567 16.83475021 189.54062134 17.49762543 189.25567627 18.18058777 C188.34036311 20.37176572 187.42027734 22.56090283 186.5 24.75 C185.83736643 26.33268051 185.17493708 27.91544653 184.51269531 29.49829102 C176.86940546 47.75015025 169.15962054 65.97419114 161.45263672 84.19921875 C157.40250561 93.77720156 153.3575142 103.35735535 149.3125 112.9375 C148.92080627 113.86512146 148.52911255 114.79274292 148.12554932 115.74847412 C142.45254381 129.18389101 136.78532966 142.62173781 131.125 156.0625 C130.79561432 156.84446747 130.46622864 157.62643494 130.12686157 158.43209839 C129.19108158 160.65384011 128.25563657 162.87572255 127.3203125 165.09765625 C126.92462822 166.03703537 126.92462822 166.03703537 126.52095032 166.99539185 C123.99828239 172.9905048 121.50169234 178.99593837 119 185 C105.47 185 91.94 185 78 185 C71.37540078 170.0713257 64.88090942 155.09654775 58.5 140.0625 C57.98978806 138.86040894 57.98978806 138.86040894 57.4692688 137.6340332 C54.11403965 129.72568993 50.766697 121.81401373 47.42163086 113.90136719 C40.82520951 98.29929004 34.20267385 82.70850417 27.5625 67.125 C27.06342133 65.95353424 26.56434265 64.78206848 26.05014038 63.57510376 C20.31289739 50.10888125 14.57473672 36.64305064 8.8125 23.1875 C8.36269775 22.13643066 7.91289551 21.08536133 7.44946289 20.00244141 C7.03946045 19.04644043 6.62945801 18.09043945 6.20703125 17.10546875 C5.83658691 16.24099121 5.46614258 15.37651367 5.08447266 14.48583984 C3.675675 11.25657877 2.20080061 8.05862661 0.70581055 4.8684082 C0 3 0 3 0 0 Z " fill="#F6F8FB" transform="translate(158,171)"/>
<path d="M0 0 C0.66 0 1.32 0 2 0 C3.98 5.94 5.96 11.88 8 18 C14.93 18.33 21.86 18.66 29 19 C29 19.66 29 20.32 29 21 C27.62304688 22.23681641 27.62304688 22.23681641 25.71875 23.6015625 C25.04199219 24.09140625 24.36523438 24.58125 23.66796875 25.0859375 C22.95253906 25.59382813 22.23710937 26.10171875 21.5 26.625 C20.78457031 27.140625 20.06914062 27.65625 19.33203125 28.1875 C17.55879571 29.46422959 15.78140052 30.73470027 14 32 C15.17855732 38.70774643 16.47648314 45.36181939 18 52 C12.71636853 50.20050233 9.00142495 46.97307088 4.71875 43.484375 C2.13539403 41.69423805 2.13539403 41.69423805 -0.48046875 42.5078125 C-3.39227103 44.23232176 -6.10074029 46.09934817 -8.8125 48.125 C-9.78832031 48.84945312 -10.76414063 49.57390625 -11.76953125 50.3203125 C-12.87361328 51.15175781 -12.87361328 51.15175781 -14 52 C-15.4676435 48.16012771 -14.45831608 45.75977395 -13.0625 42 C-11.69063072 38.27967653 -11 36.0186559 -11 32 C-12.91403499 30.26104728 -14.70399873 28.83417043 -16.8125 27.375 C-17.35970703 26.98054688 -17.90691406 26.58609375 -18.47070312 26.1796875 C-20.94782104 24.40216773 -23.46321239 22.69119174 -26 21 C-26 20.34 -26 19.68 -26 19 C-19.07 19 -12.14 19 -5 19 C-4.67 16.69 -4.34 14.38 -4 12 C-3.3644775 9.83820258 -2.6786752 7.6903901 -1.9375 5.5625 C-1.57527344 4.51191406 -1.21304688 3.46132813 -0.83984375 2.37890625 C-0.56269531 1.59386719 -0.28554687 0.80882812 0 0 Z " fill="#F8C302" transform="translate(255,402)"/>
<path d="M0 0 C2.71609918 2.71609918 3.46920222 5.86595045 4.625 9.4375 C4.85445313 10.11876953 5.08390625 10.80003906 5.3203125 11.50195312 C6.29042613 14.44982818 7 16.87666842 7 20 C14.26 20 21.52 20 29 20 C25.63648778 23.36351222 22.48587436 26.36157445 18.8125 29.3125 C17.95269531 30.00988281 17.09289062 30.70726563 16.20703125 31.42578125 C14 33 14 33 12 33 C12.27714844 33.85722656 12.55429687 34.71445313 12.83984375 35.59765625 C16.43760984 46.9543058 16.43760984 46.9543058 17 53 C16.443125 52.62488281 15.88625 52.24976563 15.3125 51.86328125 C10.26551362 48.47873126 5.17435011 45.18638454 0 42 C-0.90363281 42.71027344 -1.80726563 43.42054687 -2.73828125 44.15234375 C-3.92951849 45.08094601 -5.12093408 46.00931953 -6.3125 46.9375 C-7.20485352 47.64036133 -7.20485352 47.64036133 -8.11523438 48.35742188 C-10.72700884 50.38555959 -12.83892403 51.94630801 -16 53 C-14.63125844 46.04223041 -12.5466871 39.61396893 -10 33 C-10.54398437 32.75121094 -11.08796875 32.50242188 -11.6484375 32.24609375 C-14.49475528 30.73782901 -17.01566569 28.95092658 -19.625 27.0625 C-21.06746094 26.02802734 -21.06746094 26.02802734 -22.5390625 24.97265625 C-25 23 -25 23 -27 20 C-16.605 19.505 -16.605 19.505 -6 19 C-4.02 12.73 -2.04 6.46 0 0 Z " fill="#FAC301" transform="translate(345,72)"/>
<path d="M0 0 C1.92408012 3.57842939 3.26050566 7.30281996 4.625 11.125 C5.07101562 12.36507812 5.51703125 13.60515625 5.9765625 14.8828125 C7 18 7 18 7 20 C13.93 20 20.86 20 28 20 C28 20.66 28 21.32 28 22 C26.62304688 23.23681641 26.62304688 23.23681641 24.71875 24.6015625 C24.04199219 25.09140625 23.36523438 25.58125 22.66796875 26.0859375 C21.95253906 26.59382813 21.23710937 27.10171875 20.5 27.625 C19.78457031 28.140625 19.06914062 28.65625 18.33203125 29.1875 C16.55879571 30.46422959 14.78140052 31.73470027 13 33 C13.56215346 37.69980553 14.18985347 42.3458852 15.0625 47 C15.23910156 47.94875 15.41570312 48.8975 15.59765625 49.875 C15.79681641 50.926875 15.79681641 50.926875 16 52 C11.18219072 50.32903446 8.06911978 47.69100488 4.28125 44.36328125 C2.10146317 42.79449183 2.10146317 42.79449183 -0.38671875 43.0078125 C-3.80688506 44.30635098 -6.47520013 46.31127665 -9.3125 48.5625 C-9.86228516 48.98724609 -10.41207031 49.41199219 -10.97851562 49.84960938 C-12.3251827 50.89181259 -13.66346201 51.94483843 -15 53 C-16.91130427 49.17739145 -14.05836184 44.36968876 -12.8125 40.48046875 C-11.76887399 36.12534021 -11.76887399 36.12534021 -13 32 C-15.16380121 30.08332616 -17.20888784 28.45184419 -19.5625 26.8125 C-21.75618172 25.25280378 -23.88155135 23.66470583 -26 22 C-26 21.34 -26 20.68 -26 20 C-19.4 20 -12.8 20 -6 20 C-5.34 17.03 -4.68 14.06 -4 11 C-3.33665175 8.96395664 -2.63521293 6.93939405 -1.875 4.9375 C-1.52179688 3.99777344 -1.16859375 3.05804688 -0.8046875 2.08984375 C-0.53914063 1.40019531 -0.27359375 0.71054688 0 0 Z " fill="#F8C302" transform="translate(410,136)"/>
<path d="M0 0 C0.66 0 1.32 0 2 0 C2.34933594 1.12019531 2.69867188 2.24039063 3.05859375 3.39453125 C3.51821405 4.86719222 3.9778503 6.33984821 4.4375 7.8125 C4.66759766 8.55048828 4.89769531 9.28847656 5.13476562 10.04882812 C6.0687184 13.04018411 7.00899104 16.02697312 8 19 C14.6 19.33 21.2 19.66 28 20 C28 20.66 28 21.32 28 22 C26.62304688 23.23681641 26.62304688 23.23681641 24.71875 24.6015625 C24.04199219 25.09140625 23.36523438 25.58125 22.66796875 26.0859375 C21.95253906 26.59382813 21.23710937 27.10171875 20.5 27.625 C19.78457031 28.140625 19.06914062 28.65625 18.33203125 29.1875 C16.55879571 30.46422959 14.78140052 31.73470027 13 33 C13.20496094 33.78503906 13.40992188 34.57007813 13.62109375 35.37890625 C15.03954244 40.91017745 16.35496637 46.32370402 17 52 C12.35622999 49.94581468 8.68015535 46.65158567 4.75390625 43.484375 C2.13882696 41.69505771 2.13882696 41.69505771 -0.484375 42.5078125 C-3.39369208 44.23352543 -6.10195421 46.10025496 -8.8125 48.125 C-9.78832031 48.84945312 -10.76414062 49.57390625 -11.76953125 50.3203125 C-12.87361328 51.15175781 -12.87361328 51.15175781 -14 52 C-14.66 51.67 -15.32 51.34 -16 51 C-15.6390625 49.86820312 -15.278125 48.73640625 -14.90625 47.5703125 C-14.43735018 46.08858907 -13.96860836 44.60681563 -13.5 43.125 C-13.26152344 42.37863281 -13.02304687 41.63226563 -12.77734375 40.86328125 C-11.47229585 37.00757933 -11.47229585 37.00757933 -11 33 C-12.90629598 31.41585327 -14.80705584 29.94799082 -16.8125 28.5 C-17.35970703 28.09652344 -17.90691406 27.69304687 -18.47070312 27.27734375 C-20.94565963 25.4593757 -23.44455191 23.70363206 -26 22 C-26 21.34 -26 20.68 -26 20 C-16.1 19.505 -16.1 19.505 -6 19 C-4.39921786 13.8696061 -4.39921786 13.8696061 -2.79907227 8.73901367 C-1.88708844 5.8183937 -0.96758322 2.90274965 0 0 Z " fill="#F7C302" transform="translate(432,226)"/>
<path d="M0 0 C2.6541779 3.15611413 3.92267064 6.15170576 5.1875 10.0625 C5.53167969 11.10535156 5.87585938 12.14820313 6.23046875 13.22265625 C7 16 7 16 7 19 C14.26 19 21.52 19 29 19 C25.38278634 22.61721366 22.28110664 25.40258684 18.1875 28.3125 C17.21167969 29.00988281 16.23585938 29.70726562 15.23046875 30.42578125 C14.12638672 31.20501953 14.12638672 31.20501953 13 32 C13.28875 33.258125 13.5775 34.51625 13.875 35.8125 C15.07180272 41.18101507 16.04830632 46.58344556 17 52 C15.29113021 50.91751309 13.58293129 49.83396706 11.875 48.75 C10.44800781 47.84507812 10.44800781 47.84507812 8.9921875 46.921875 C5.97243291 44.98229373 2.98622529 42.99081686 0 41 C-4.95 44.63 -9.9 48.26 -15 52 C-16.45551958 49.08896085 -15.2668563 47.18681197 -14.31054688 44.234375 C-14.06369141 43.49703125 -13.81683594 42.7596875 -13.5625 42 C-11.74129242 37.09835577 -11.74129242 37.09835577 -11 32 C-12.51468097 30.60130488 -12.51468097 30.60130488 -14.5 29.21484375 C-15.221875 28.68439453 -15.94375 28.15394531 -16.6875 27.60742188 C-17.450625 27.05634766 -18.21375 26.50527344 -19 25.9375 C-20.50202802 24.84523131 -22.00214354 23.75032603 -23.5 22.65234375 C-24.1703125 22.16757568 -24.840625 21.68280762 -25.53125 21.18334961 C-26.0159375 20.79284424 -26.500625 20.40233887 -27 20 C-27 19.67 -27 19.34 -27 19 C-20.07 19 -13.14 19 -6 19 C-5.3503125 16.2465625 -5.3503125 16.2465625 -4.6875 13.4375 C-3.50752402 8.6895014 -2.10397292 4.40832421 0 0 Z " fill="#F8C301" transform="translate(345,381)"/>
<path d="M0 0 C3.27037845 2.62379933 4.02748522 5.55328305 5.1875 9.5 C5.53167969 10.6446875 5.87585938 11.789375 6.23046875 12.96875 C7 16 7 16 7 19 C14.26 19 21.52 19 29 19 C25.38278634 22.61721366 22.28110664 25.40258684 18.1875 28.3125 C17.21167969 29.00988281 16.23585937 29.70726563 15.23046875 30.42578125 C14.12638672 31.20501953 14.12638672 31.20501953 13 32 C14.17855732 38.70774643 15.47648314 45.36181939 17 52 C16.443125 51.62488281 15.88625 51.24976563 15.3125 50.86328125 C10.2645877 47.47811033 5.1698117 44.19588359 0 41 C-4.95 44.63 -9.9 48.26 -15 52 C-16.10960573 48.67118282 -15.9412896 48.12635748 -14.78515625 44.98828125 C-14.51123047 44.23095703 -14.23730469 43.47363281 -13.95507812 42.69335938 C-13.66052734 41.90767578 -13.36597656 41.12199219 -13.0625 40.3125 C-12.62647461 39.11657227 -12.62647461 39.11657227 -12.18164062 37.89648438 C-11.46260698 35.92798243 -10.73236297 33.96358188 -10 32 C-10.53109375 31.7628125 -11.0621875 31.525625 -11.609375 31.28125 C-14.69742595 29.62621616 -17.4528472 27.59451872 -20.25 25.5 C-20.80429688 25.09652344 -21.35859375 24.69304687 -21.9296875 24.27734375 C-23.32569165 23.23549829 -24.66802392 22.12254588 -26 21 C-26 20.34 -26 19.68 -26 19 C-19.07 19 -12.14 19 -5 19 C-4.34 16.03 -3.68 13.06 -3 10 C-2.48312351 8.13877043 -1.94672708 6.28261922 -1.375 4.4375 C-1.11460937 3.59058594 -0.85421875 2.74367188 -0.5859375 1.87109375 C-0.39257812 1.25363281 -0.19921875 0.63617188 0 0 Z " fill="#F9C101" transform="translate(165,73)"/>
<path d="M0 0 C2 1 2 1 3.03515625 3.984375 C3.37417969 5.22703125 3.71320313 6.4696875 4.0625 7.75 C4.57490234 9.59851563 4.57490234 9.59851563 5.09765625 11.484375 C5.82073577 14.30156795 6.42959461 17.14797304 7 20 C13.6 20 20.2 20 27 20 C27 20.66 27 21.32 27 22 C24.9102773 23.79539556 22.82157918 25.47061442 20.625 27.125 C20.02171875 27.59292969 19.4184375 28.06085938 18.796875 28.54296875 C14.26141126 32 14.26141126 32 12 32 C12.15670166 32.56509277 12.31340332 33.13018555 12.47485352 33.71240234 C13.17814605 36.26462707 13.87044156 38.81970731 14.5625 41.375 C14.80935547 42.26445312 15.05621094 43.15390625 15.31054688 44.0703125 C15.53935547 44.92109375 15.76816406 45.771875 16.00390625 46.6484375 C16.21861572 47.43395996 16.4333252 48.21948242 16.65454102 49.02880859 C17 51 17 51 16 53 C14.55367187 51.89978516 14.55367187 51.89978516 13.078125 50.77734375 C11.80257809 49.83006259 10.52650897 48.88348433 9.25 47.9375 C8.61578125 47.45216797 7.9815625 46.96683594 7.328125 46.46679688 C6.709375 46.01240234 6.090625 45.55800781 5.453125 45.08984375 C4.88754883 44.66566162 4.32197266 44.24147949 3.73925781 43.80444336 C2.01036377 42.82027892 2.01036377 42.82027892 -0.01367188 43.24023438 C-3.25380308 44.47957659 -5.9505991 46.55369913 -8.75 48.5625 C-9.35199219 48.98724609 -9.95398438 49.41199219 -10.57421875 49.84960938 C-12.05329714 50.89435522 -13.52717259 51.94646016 -15 53 C-16.67241875 49.6551625 -14.7357626 46.3795543 -13.625 43 C-13.39039062 42.26265625 -13.15578125 41.5253125 -12.9140625 40.765625 C-11.17426658 35.34853316 -11.17426658 35.34853316 -10 33 C-10.53109375 32.7628125 -11.0621875 32.525625 -11.609375 32.28125 C-14.69742595 30.62621616 -17.4528472 28.59451872 -20.25 26.5 C-20.80429688 26.09652344 -21.35859375 25.69304687 -21.9296875 25.27734375 C-23.32569165 24.23549829 -24.66802392 23.12254588 -26 22 C-26 21.34 -26 20.68 -26 20 C-16.1 19.505 -16.1 19.505 -6 19 C-5.38125 16.97875 -4.7625 14.9575 -4.125 12.875 C-2.80507356 8.56324029 -1.44154827 4.27269711 0 0 Z " fill="#F5C203" transform="translate(101,136)"/>
<path d="M0 0 C2 1 2 1 3.2890625 4.2734375 C3.74216125 5.63806434 4.18713794 7.0054082 4.625 8.375 C4.96917969 9.40367187 4.96917969 9.40367187 5.3203125 10.453125 C6.28795001 13.413635 7 15.86608457 7 19 C13.93 19 20.86 19 28 19 C24.46164278 22.53835722 21.59674385 25.06799042 17.625 27.875 C15.02131694 29.87706375 15.02131694 29.87706375 13 32 C12.68232339 35.24030143 12.94455037 36.07885659 14 39 C14.53657494 41.30889821 15.05624615 43.62176456 15.5625 45.9375 C16.03881888 47.95900646 16.5170393 49.98007005 17 52 C12.38042614 49.94564833 8.68877594 46.70694167 4.75390625 43.58203125 C2.17476925 41.8013875 2.17476925 41.8013875 -0.453125 41.9765625 C-3.81627187 43.32801109 -6.49794274 45.32932152 -9.3125 47.5625 C-9.86228516 47.98724609 -10.41207031 48.41199219 -10.97851562 48.84960938 C-12.3251827 49.89181259 -13.66346201 50.94483843 -15 52 C-16.67241875 48.6551625 -14.7357626 45.3795543 -13.625 42 C-13.39039063 41.26265625 -13.15578125 40.5253125 -12.9140625 39.765625 C-11.17426658 34.34853316 -11.17426658 34.34853316 -10 32 C-10.53109375 31.7628125 -11.0621875 31.525625 -11.609375 31.28125 C-14.69742595 29.62621616 -17.4528472 27.59451872 -20.25 25.5 C-20.80429688 25.09652344 -21.35859375 24.69304687 -21.9296875 24.27734375 C-23.32569165 23.23549829 -24.66802392 22.12254588 -26 21 C-26 20.34 -26 19.68 -26 19 C-16.1 18.505 -16.1 18.505 -6 18 C-4.02 12.06 -2.04 6.12 0 0 Z " fill="#F9C301" transform="translate(165,381)"/>
<path d="M0 0 C0.66 0 1.32 0 2 0 C3.00486895 2.95670218 4.00306024 5.91561577 5 8.875 C5.28617187 9.71675781 5.57234375 10.55851562 5.8671875 11.42578125 C6.13789063 12.23144531 6.40859375 13.03710938 6.6875 13.8671875 C6.93886719 14.61081543 7.19023437 15.35444336 7.44921875 16.12060547 C8 18 8 18 8 20 C14.93 20 21.86 20 29 20 C25.48022006 23.51977994 22.68948416 26.09115077 18.6875 28.8125 C17.80449219 29.41707031 16.92148437 30.02164063 16.01171875 30.64453125 C15.34785156 31.09183594 14.68398438 31.53914063 14 32 C14.65965039 38.86036401 16.2362764 45.34443923 18 52 C13.38042614 49.94564833 9.68877594 46.70694167 5.75390625 43.58203125 C3.17476925 41.8013875 3.17476925 41.8013875 0.546875 41.9765625 C-2.81627187 43.32801109 -5.49794274 45.32932152 -8.3125 47.5625 C-8.86228516 47.98724609 -9.41207031 48.41199219 -9.97851562 48.84960938 C-11.3251827 49.89181259 -12.66346201 50.94483843 -14 52 C-14.66 51.67 -15.32 51.34 -16 51 C-15.61585938 49.89140625 -15.23171875 48.7828125 -14.8359375 47.640625 C-14.34817701 46.17734354 -13.86124072 44.71378717 -13.375 43.25 C-13.11976563 42.52039063 -12.86453125 41.79078125 -12.6015625 41.0390625 C-11.25277595 36.99397742 -11.25277595 36.99397742 -11.4375 32.80859375 C-13.82824862 30.04130222 -16.68472743 27.95173677 -19.625 25.8125 C-21.77019365 24.23075911 -23.89108724 22.63069451 -26 21 C-26 20.67 -26 20.34 -26 20 C-19.07 20 -12.14 20 -5 20 C-4.67 17.69 -4.34 15.38 -4 13 C-3.35868528 10.6742683 -2.67192164 8.36052901 -1.9375 6.0625 C-1.57527344 4.91910156 -1.21304688 3.77570312 -0.83984375 2.59765625 C-0.56269531 1.74042969 -0.28554687 0.88320313 0 0 Z " fill="#FAC501" transform="translate(255,50)"/>
<path d="M0 0 C2 1 2 1 3.2890625 4.2734375 C3.74216125 5.63806434 4.18713794 7.0054082 4.625 8.375 C4.96917969 9.40367187 4.96917969 9.40367187 5.3203125 10.453125 C6.28795001 13.413635 7 15.86608457 7 19 C13.93 19 20.86 19 28 19 C24.7691952 22.2308048 21.86252908 25.04600875 18.3125 27.8125 C17.54550781 28.41707031 16.77851562 29.02164062 15.98828125 29.64453125 C14 31 14 31 12 31 C14.475 40.405 14.475 40.405 17 50 C12.86002304 50 10.54392969 47.83167083 7.3125 45.5 C6.70599609 45.07074219 6.09949219 44.64148438 5.47460938 44.19921875 C3.97861974 43.13906862 2.488713 42.07034429 1 41 C-3.6502799 43.09372792 -7.48653444 46.2673356 -11.5390625 49.3203125 C-14 51 -14 51 -16 51 C-15.71125 49.89140625 -15.4225 48.7828125 -15.125 47.640625 C-14.74974938 46.17714757 -14.37476322 44.71360232 -14 43.25 C-13.80921875 42.52039063 -13.6184375 41.79078125 -13.421875 41.0390625 C-12.53484036 37.55428354 -12 34.61876278 -12 31 C-14.29609381 28.88414796 -14.29609381 28.88414796 -17.25 27 C-20.9722991 24.47907786 -23.77480573 22.22519427 -27 19 C-20.07 19 -13.14 19 -6 19 C-5.566875 17.35 -5.13375 15.7 -4.6875 14 C-3.38385161 9.20133236 -1.83084088 4.62069364 0 0 Z " fill="#F7C402" transform="translate(78,227)"/>
<path d="M0 0 C2.72863567 2.72863567 3.47085394 5.91006895 4.625 9.5 C4.85445312 10.18964844 5.08390625 10.87929688 5.3203125 11.58984375 C7 16.71888951 7 16.71888951 7 19 C13.93 19 20.86 19 28 19 C24.58846185 22.41153815 21.43625763 25.36347733 17.6875 28.3125 C16.80449219 29.00988281 15.92148438 29.70726562 15.01171875 30.42578125 C14.34785156 30.94527344 13.68398437 31.46476562 13 32 C13.12117188 32.60585938 13.24234375 33.21171875 13.3671875 33.8359375 C15.18359375 42.91796875 15.18359375 42.91796875 17 52 C11.59161557 48.43120211 6.25020219 44.79801861 1 41 C-0.75129657 42.10210905 -2.50098464 43.20677432 -4.25 44.3125 C-5.22453125 44.92738281 -6.1990625 45.54226563 -7.203125 46.17578125 C-9.54733713 47.70475759 -11.78784032 49.28820977 -14 51 C-14.66 50.67 -15.32 50.34 -16 50 C-15.62746094 48.87980469 -15.25492188 47.75960937 -14.87109375 46.60546875 C-14.39276402 45.13296352 -13.91492491 43.66029885 -13.4375 42.1875 C-13.19064453 41.44951172 -12.94378906 40.71152344 -12.68945312 39.95117188 C-11.18382668 35.51193634 -11.18382668 35.51193634 -12 31 C-13.95136051 29.4136215 -15.88613409 27.94381851 -17.9375 26.5 C-21.16096592 24.21529784 -23.76704597 22.34943105 -26 19 C-19.4 19 -12.8 19 -6 19 C-5.566875 17.35 -5.13375 15.7 -4.6875 14 C-3.38385161 9.20133236 -1.83084088 4.62069364 0 0 Z " fill="#F8C302" transform="translate(101,315)"/>
<path d="M0 0 C0.66 0 1.32 0 2 0 C2.84334329 2.22582389 3.67478551 4.45496026 4.5 6.6875 C4.73847656 7.31333984 4.97695313 7.93917969 5.22265625 8.58398438 C6.62380414 12.40711648 7 14.81115597 7 19 C14.26 19 21.52 19 29 19 C25.38278634 22.61721366 22.28110664 25.40258684 18.1875 28.3125 C17.21167969 29.00988281 16.23585938 29.70726562 15.23046875 30.42578125 C14.12638672 31.20501953 14.12638672 31.20501953 13 32 C13.28875 33.20398438 13.5775 34.40796875 13.875 35.6484375 C14.25011736 37.2239304 14.62511095 38.79945276 15 40.375 C15.28617187 41.56609375 15.28617187 41.56609375 15.578125 42.78125 C15.75859375 43.54179687 15.9390625 44.30234375 16.125 45.0859375 C16.37636719 46.1385376 16.37636719 46.1385376 16.6328125 47.21240234 C17 49 17 49 17 51 C13.41486894 49.37815499 10.41007677 47.20743761 7.25 44.875 C6.26515625 44.15054688 5.2803125 43.42609375 4.265625 42.6796875 C3.14414062 41.84824219 3.14414062 41.84824219 2 41 C-2.6502799 43.09372792 -6.48653444 46.2673356 -10.5390625 49.3203125 C-13 51 -13 51 -15 51 C-13.64746536 44.54945018 -11.96939767 38.28894321 -10 32 C-11.93675945 30.54067427 -13.87437288 29.08250736 -15.8125 27.625 C-16.35970703 27.2125 -16.90691406 26.8 -17.47070312 26.375 C-19.94446605 24.51592968 -22.42434959 22.71710028 -25 21 C-25 20.34 -25 19.68 -25 19 C-15.1 18.505 -15.1 18.505 -5 18 C-3.35 12.06 -1.7 6.12 0 0 Z " fill="#F7C302" transform="translate(409,315)"/>
<path d="M0 0 C0.83272934 0.00222061 1.66545868 0.00444122 2.52342224 0.00672913 C3.46432205 0.00680466 4.40522186 0.00688019 5.37463379 0.00695801 C6.39754013 0.01211929 7.42044647 0.01728058 8.47434998 0.02259827 C9.51614914 0.02401321 10.5579483 0.02542816 11.63131714 0.02688599 C14.97355467 0.03250372 18.31572629 0.04505922 21.65794373 0.05775452 C23.91770839 0.06276723 26.17747409 0.06733053 28.4372406 0.07142639 C33.98999763 0.08247891 39.54271597 0.09923428 45.09544373 0.12025452 C45.09544373 0.45025452 45.09544373 0.78025452 45.09544373 1.12025452 C29.91544373 1.12025452 14.73544373 1.12025452 -0.90455627 1.12025452 C3.04070744 10.24672372 3.04070744 10.24672372 6.99388123 19.36976624 C7.48114685 20.50172424 7.96841248 21.63368225 8.47044373 22.79994202 C9.22454529 24.54380188 9.22454529 24.54380188 9.99388123 26.32289124 C11.09544373 29.12025452 11.09544373 29.12025452 11.09544373 31.12025452 C10.43544373 31.12025452 9.77544373 31.12025452 9.09544373 31.12025452 C4.02823555 21.54886129 0.4100293 11.41291499 -2.90455627 1.12025452 C-1.90455627 0.12025452 -1.90455627 0.12025452 0 0 Z " fill="#27324C" transform="translate(158.90455627441406,169.87974548339844)"/>
<path d="M0 0 C0.66 0.33 1.32 0.66 2 1 C-3.04897967 6.94736382 -8.3918017 12.51607898 -13.9375 18 C-15.10635742 19.16208984 -15.10635742 19.16208984 -16.29882812 20.34765625 C-18.1969242 22.23410757 -20.09733149 24.11816245 -22 26 C-22.99 25.67 -23.98 25.34 -25 25 C-24.49210937 24.50371094 -23.98421875 24.00742188 -23.4609375 23.49609375 C-20.16692501 20.2452612 -16.94196812 17.01337285 -14 13.4375 C-11.23173279 10.12316364 -8.12744159 7.36004931 -4.83203125 4.578125 C-3.13809049 3.11895215 -1.55835516 1.60177682 0 0 Z " fill="#0E2448" transform="translate(96,71)"/>
<path d="M0 0 C0.66 0.99 1.32 1.98 2 3 C-1.171738 4.585869 -4.63513822 4.37866445 -8.125 4.5625 C-9.25615234 4.62727539 -9.25615234 4.62727539 -10.41015625 4.69335938 C-12.27321888 4.7994832 -14.13658524 4.90025001 -16 5 C-12.04 7.97 -8.08 10.94 -4 14 C-4.99 14.495 -4.99 14.495 -6 15 C-7.24716797 14.06027344 -7.24716797 14.06027344 -8.51953125 13.1015625 C-9.61715542 12.27599902 -10.71481345 11.45048054 -11.8125 10.625 C-12.35970703 10.2125 -12.90691406 9.8 -13.47070312 9.375 C-15.94446605 7.51592968 -18.42434959 5.71710028 -21 4 C-21 3.34 -21 2.68 -21 2 C-14.07 2 -7.14 2 0 2 C0 1.34 0 0.68 0 0 Z " fill="#E5D506" transform="translate(250,419)"/>
<path d="M0 0 C2.475 0.99 2.475 0.99 5 2 C4.11267606 9.6056338 4.11267606 9.6056338 3.375 12.1875 C2.86701422 14.64276458 3.39857796 16.59431184 4 19 C2.02 20.32 0.04 21.64 -2 23 C-0.85210257 15.90116066 1.11450374 9.58341381 4 3 C2.68 2.34 1.36 1.68 0 1 C0 0.67 0 0.34 0 0 Z " fill="#E9D206" transform="translate(151,102)"/>
<path d="M0 0 C6.6 0 13.2 0 20 0 C20 0.66 20 1.32 20 2 C15.05 2.33 10.1 2.66 5 3 C7.475 4.98 7.475 4.98 10 7 C9.67 7.66 9.34 8.32 9 9 C7.49428343 7.88266271 5.99555708 6.75589965 4.5 5.625 C3.6646875 4.99851562 2.829375 4.37203125 1.96875 3.7265625 C1.3190625 3.15679687 0.669375 2.58703125 0 2 C0 1.34 0 0.68 0 0 Z " fill="#E8D606" transform="translate(139,92)"/>
<path d="M0 0 C7.59 0.33 15.18 0.66 23 1 C18 6 18 6 16 7 C16.33 6.01 16.66 5.02 17 4 C11.72 3.67 6.44 3.34 1 3 C0.67 2.01 0.34 1.02 0 0 Z " fill="#E6D506" transform="translate(351,91)"/>
<path d="M0 0 C1.96301592 3.50538557 2.95902388 7.13351728 4 11 C1.09399739 12.25664978 -0.79604584 13 -4 13 C-3.52343588 11.20763933 -3.04366502 9.41613103 -2.5625 7.625 C-2.29566406 6.62726563 -2.02882813 5.62953125 -1.75390625 4.6015625 C-1 2 -1 2 0 0 Z " fill="#E6C307" transform="translate(410,136)"/>
<path d="M0 0 C2.64719686 2.33609771 3.8883405 4.58062299 5.26171875 7.81640625 C5.85629883 9.20956055 5.85629883 9.20956055 6.46289062 10.63085938 C6.86701172 11.59830078 7.27113281 12.56574219 7.6875 13.5625 C8.10322266 14.53380859 8.51894531 15.50511719 8.94726562 16.50585938 C12 23.71913485 12 23.71913485 12 26 C11.34 26 10.68 26 10 26 C10 25.34 10 24.68 10 24 C9.34 24 8.68 24 8 24 C7.88527344 23.30132812 7.77054688 22.60265625 7.65234375 21.8828125 C6.93061895 18.69339393 5.83421467 15.88635997 4.5625 12.875 C4.13066406 11.84117187 3.69882813 10.80734375 3.25390625 9.7421875 C2.0288664 6.87164227 2.0288664 6.87164227 0 4 C0 2.68 0 1.36 0 0 Z " fill="#171E34" transform="translate(181,229)"/>
<path d="M0 0 C6.93 0 13.86 0 21 0 C21 0.33 21 0.66 21 1 C13.08 1.495 13.08 1.495 5 2 C6.5778125 3.3303125 6.5778125 3.3303125 8.1875 4.6875 C11.27757508 7.33164961 14.16838665 10.08258018 17 13 C13.49367197 11.396395 10.49450479 9.320147 7.375 7.0625 C6.41335938 6.37285156 5.45171875 5.68320313 4.4609375 4.97265625 C2 3 2 3 0 0 Z " fill="#DFD609" transform="translate(318,92)"/>
<path d="M0 0 C7.59 0.33 15.18 0.66 23 1 C21.68 2.32 20.36 3.64 19 5 C18.34 4.67 17.68 4.34 17 4 C14.28737884 3.7677354 11.59226874 3.58063765 8.875 3.4375 C8.12089844 3.39431641 7.36679688 3.35113281 6.58984375 3.30664062 C4.72678112 3.2005168 2.86341476 3.09974999 1 3 C0.67 2.01 0.34 1.02 0 0 Z " fill="#E7D306" transform="translate(171,91)"/>
<path d="M0 0 C4.2829452 0.5479083 6.85135641 2.02432804 10.3125 4.5625 C11.19550781 5.20316406 12.07851563 5.84382813 12.98828125 6.50390625 C13.65214844 6.99761719 14.31601562 7.49132812 15 8 C14.67 5.36 14.34 2.72 14 0 C16.78633115 4.17949673 18 6.93375326 18 12 C13.36828093 9.91955881 9.57470983 6.74218036 5.55859375 3.6796875 C3.09213485 1.72560209 3.09213485 1.72560209 0 2 C0 1.34 0 0.68 0 0 Z " fill="#E5D508" transform="translate(431,266)"/>
<path d="M0 0 C0.33 1.32 0.66 2.64 1 4 C-7.415 4.495 -7.415 4.495 -16 5 C-13.36 7.31 -10.72 9.62 -8 12 C-8.33 12.66 -8.66 13.32 -9 14 C-10.83913695 12.5489926 -12.6711753 11.08898341 -14.5 9.625 C-15.5209375 8.81289062 -16.541875 8.00078125 -17.59375 7.1640625 C-18.3878125 6.44992188 -19.181875 5.73578125 -20 5 C-20 4.34 -20 3.68 -20 3 C-13.4 3 -6.8 3 0 3 C0 2.01 0 1.02 0 0 Z " fill="#CBBE13" transform="translate(404,153)"/>
<path d="M0 0 C0.66 0 1.32 0 2 0 C2.99 4.29 3.98 8.58 5 13 C-5.625 6.25 -5.625 6.25 -9 4 C-9 3.34 -9 2.68 -9 2 C-5.4213696 3.65167557 -2.25179812 5.78286492 1 8 C0.67 5.36 0.34 2.72 0 0 Z " fill="#E4DA07" transform="translate(113,176)"/>
<path d="M0 0 C1.31534494 3.65857532 0.65468309 6.08026481 -0.4375 9.75 C-0.72496094 10.73484375 -1.01242187 11.7196875 -1.30859375 12.734375 C-1.65083984 13.85585937 -1.65083984 13.85585937 -2 15 C-1.34 15.33 -0.68 15.66 0 16 C-1.28965176 17.37562854 -2.62689293 18.70766393 -4 20 C-4.66 20 -5.32 20 -6 20 C-4.63125844 13.04223041 -2.5466871 6.61396893 0 0 Z " fill="#E2CC09" transform="translate(335,105)"/>
<path d="M0 0 C3.76119476 0.62393651 6.18960042 2.34773715 9.25 4.5625 C10.14203125 5.20316406 11.0340625 5.84382813 11.953125 6.50390625 C12.96632813 7.24447266 12.96632813 7.24447266 14 8 C14.33 6.02 14.66 4.04 15 2 C17.12046792 5.53411321 17.53199289 8.94393835 18 13 C5.50674616 5.16065265 5.50674616 5.16065265 0 1 C0 0.67 0 0.34 0 0 Z " fill="#E1D509" transform="translate(344,420)"/>
<path d="M0 0 C4.22489602 0.53280216 6.54080716 1.87678199 9.8125 4.5625 C10.60269531 5.20316406 11.39289063 5.84382813 12.20703125 6.50390625 C12.79871094 6.99761719 13.39039063 7.49132812 14 8 C14.33 6.68 14.66 5.36 15 4 C17.12508244 7.18762365 17.5020163 9.26512223 18 13 C15.86658293 11.57772195 13.73341697 10.15508896 11.6015625 8.73046875 C9.87197594 7.58000802 8.13759695 6.43671873 6.3984375 5.30078125 C5.58632812 4.76839844 4.77421875 4.23601562 3.9375 3.6875 C3.18339844 3.19636719 2.42929688 2.70523438 1.65234375 2.19921875 C1.10707031 1.80347656 0.56179687 1.40773438 0 1 C0 0.67 0 0.34 0 0 Z " fill="#E7D606" transform="translate(164,112)"/>
<path d="M0 0 C4.67105792 1.55701931 8.08705685 4.08447373 12 7 C11.67 5.35 11.34 3.7 11 2 C11.66 1.67 12.32 1.34 13 1 C13.66 4.3 14.32 7.6 15 11 C11.4172397 9.20861985 8.4748916 7.28791703 5.25 4.9375 C3.77273438 3.86822266 3.77273438 3.86822266 2.265625 2.77734375 C1.51796875 2.19082031 0.7703125 1.60429687 0 1 C0 0.67 0 0.34 0 0 Z " fill="#E9DB06" transform="translate(411,355)"/>
<path d="M0 0 C2.97903734 2.97903734 4 5.80285329 4 10 C3.34 10 2.68 10 2 10 C2 9.34 2 8.68 2 8 C1.34 8 0.68 8 0 8 C0 8.66 0 9.32 0 10 C-0.99 10 -1.98 10 -3 10 C-2.01 6.7 -1.02 3.4 0 0 Z " fill="#E3C308" transform="translate(101,315)"/>
<path d="M0 0 C2.50298434 2.93828597 3.46930939 5.17902761 4 9 C4.66 9 5.32 9 6 9 C6.53154742 10.60064843 7.04988353 12.20568874 7.5625 13.8125 C7.85253906 14.70582031 8.14257812 15.59914062 8.44140625 16.51953125 C9 19 9 19 8 22 C6.65791246 18.89954577 5.32786246 15.79407011 4 12.6875 C3.6184375 11.80642578 3.236875 10.92535156 2.84375 10.01757812 C2.4828125 9.17001953 2.121875 8.32246094 1.75 7.44921875 C1.41484375 6.66893311 1.0796875 5.88864746 0.734375 5.0847168 C0 3 0 3 0 0 Z " fill="#0C1129" transform="translate(211,185)"/>
<path d="M0 0 C4.2829452 0.5479083 6.85135641 2.02432804 10.3125 4.5625 C11.19550781 5.20316406 12.07851563 5.84382813 12.98828125 6.50390625 C13.65214844 6.99761719 14.31601562 7.49132812 15 8 C15.33 7.34 15.66 6.68 16 6 C16.66 7.98 17.32 9.96 18 12 C14.48227036 10.40330002 11.53755154 8.29445992 8.4375 6 C5.65162338 3.94366773 2.88140624 1.9209375 0 0 Z " fill="#E3D708" transform="translate(255,90)"/>
<path d="M0 0 C0.66 0.66 1.32 1.32 2 2 C3.31747324 2.69748583 4.64914193 3.36959957 6 4 C3.69 5.65 1.38 7.3 -1 9 C-1.66 8.67 -2.32 8.34 -3 8 C-2.01 5.36 -1.02 2.72 0 0 Z " fill="#EAD106" transform="translate(88,357)"/>
<path d="M0 0 C0.99 0.33 1.98 0.66 3 1 C3 1.66 3 2.32 3 3 C3.99 3.33 4.98 3.66 6 4 C3.35645475 6.83236991 1.56311466 8.21844267 -2 10 C-1.34 6.7 -0.68 3.4 0 0 Z " fill="#E9CC07" transform="translate(87,179)"/>
<path d="M0 0 C0.77321882 2.98241547 1.41196203 5.97580475 2 9 C0.02 10.32 -1.96 11.64 -4 13 C-3.52343588 11.20763933 -3.04366502 9.41613103 -2.5625 7.625 C-2.29566406 6.62726563 -2.02882813 5.62953125 -1.75390625 4.6015625 C-1 2 -1 2 0 0 Z " fill="#EED305" transform="translate(333,420)"/>
<path d="M0 0 C0.66 0.66 1.32 1.32 2 2 C4.57061311 2.64767793 4.57061311 2.64767793 7 3 C4.24479785 5.95929119 1.53372712 8.03681826 -2 10 C-1.34 6.7 -0.68 3.4 0 0 Z " fill="#E4CD08" transform="translate(151,423)"/>
<path d="M0 0 C3.10742423 1.46818668 5.90471739 3.20025 8.75 5.125 C9.94882812 5.93324219 9.94882812 5.93324219 11.171875 6.7578125 C11.77515625 7.16773438 12.3784375 7.57765625 13 8 C13.33 7.34 13.66 6.68 14 6 C14.33 7.65 14.66 9.3 15 11 C10.92584833 9.59790456 8.01720177 7.65552322 4.6875 4.9375 C3.80449219 4.22464844 2.92148437 3.51179687 2.01171875 2.77734375 C1.34785156 2.19082031 0.68398438 1.60429687 0 1 C0 0.67 0 0.34 0 0 Z " fill="#ECDF05" transform="translate(411,177)"/>
<path d="M0 0 C0.33 0.99 0.66 1.98 1 3 C-0.2375 3.433125 -1.475 3.86625 -2.75 4.3125 C-5.33955985 5.26702912 -7.08961593 6.06781746 -9.3125 7.75 C-10.1478125 8.36875 -10.1478125 8.36875 -11 9 C-11.99 8.67 -12.98 8.34 -14 8 C-12.04532248 6.66101601 -10.0866421 5.32870953 -8.125 4 C-7.03445312 3.2575 -5.94390625 2.515 -4.8203125 1.75 C-2 0 -2 0 0 0 Z " fill="#0E1651" transform="translate(166,422)"/>
<path d="M0 0 C2.29633824 3.44450737 2.54016485 5.93812283 3 10 C1.51714758 9.04737966 0.03881799 8.08771595 -1.4375 7.125 C-2.26121094 6.59132813 -3.08492188 6.05765625 -3.93359375 5.5078125 C-6 4 -6 4 -7 2 C-2.125 3.875 -2.125 3.875 -1 5 C-0.67 3.35 -0.34 1.7 0 0 Z " fill="#D7CA0D" transform="translate(115,357)"/>
<path d="M0 0 C0.99 0.33 1.98 0.66 3 1 C2.63076923 7.4 2.63076923 7.4 -0.5625 10.4375 C-1.7690625 11.2109375 -1.7690625 11.2109375 -3 12 C-2.01 8.04 -1.02 4.08 0 0 Z " fill="#E0BE09" transform="translate(243,440)"/>
<path d="M0 0 C2.55263088 2.274694 3.84144815 4.43202693 5.1875 7.5625 C5.53167969 8.34753906 5.87585938 9.13257813 6.23046875 9.94140625 C7 12 7 12 7 14 C6.34 14 5.68 14 5 14 C4.15675328 12.421924 3.32576082 10.8372958 2.5 9.25 C2.0359375 8.36828125 1.571875 7.4865625 1.09375 6.578125 C0 4 0 4 0 0 Z " fill="#171D37" transform="translate(172,208)"/>
<path d="M0 0 C-1.32 0.99 -2.64 1.98 -4 3 C-4.33 2.67 -4.66 2.34 -5 2 C-7.69235776 1.76321284 -10.36498156 1.57801975 -13.0625 1.4375 C-13.82111328 1.39431641 -14.57972656 1.35113281 -15.36132812 1.30664062 C-17.24065438 1.20026367 -19.12030244 1.09960066 -21 1 C-21 0.67 -21 0.34 -21 0 C-17.87549468 -0.19645093 -14.75038555 -0.38063489 -11.625 -0.5625 C-10.29082031 -0.64661133 -10.29082031 -0.64661133 -8.9296875 -0.73242188 C-7.65351563 -0.80493164 -7.65351563 -0.80493164 -6.3515625 -0.87890625 C-5.56604004 -0.9260376 -4.78051758 -0.97316895 -3.97119141 -1.02172852 C-2 -1 -2 -1 0 0 Z " fill="#F4D403" transform="translate(193,401)"/>
<path d="M0 0 C0.33 0.66 0.66 1.32 1 2 C-1.93744524 2.16768291 -4.87494904 2.33418858 -7.8125 2.5 C-8.64587891 2.54769531 -9.47925781 2.59539062 -10.33789062 2.64453125 C-11.14033203 2.68964844 -11.94277344 2.73476563 -12.76953125 2.78125 C-13.50792236 2.82314453 -14.24631348 2.86503906 -15.00708008 2.90820312 C-16.66990494 2.98479533 -18.3354121 3 -20 3 C-20 2.34 -20 1.68 -20 1 C-10.1 0.505 -10.1 0.505 0 0 Z " fill="#D6C109" transform="translate(159,399)"/>
<path d="M0 0 C6.93 0 13.86 0 21 0 C21 0.33 21 0.66 21 1 C18.22922802 1.16774403 15.45839073 1.33423936 12.6875 1.5 C11.50897461 1.57154297 11.50897461 1.57154297 10.30664062 1.64453125 C9.1706543 1.71220703 9.1706543 1.71220703 8.01171875 1.78125 C7.31522217 1.82314453 6.61872559 1.86503906 5.90112305 1.90820312 C4.26903034 1.98700971 2.63399421 2 1 2 C0.67 1.34 0.34 0.68 0 0 Z " fill="#DAC408" transform="translate(318,400)"/>
<path d="M0 0 C0.66 0.99 1.32 1.98 2 3 C-0.45250093 4.22625047 -1.84310435 4.03425355 -4.5703125 3.87890625 C-5.91416016 3.80639648 -5.91416016 3.80639648 -7.28515625 3.73242188 C-8.22230469 3.67634766 -9.15945312 3.62027344 -10.125 3.5625 C-11.54232422 3.48418945 -11.54232422 3.48418945 -12.98828125 3.40429688 C-15.3258419 3.27443239 -17.66299545 3.1394613 -20 3 C-20 2.67 -20 2.34 -20 2 C-13.4 2 -6.8 2 0 2 C0 1.34 0 0.68 0 0 Z " fill="#CEBB13" transform="translate(95,332)"/>
<path d="M0 0 C0.66 0 1.32 0 2 0 C2.99 3.63 3.98 7.26 5 11 C4.34 11 3.68 11 3 11 C2.67 9.02 2.34 7.04 2 5 C1.01 5 0.02 5 -1 5 C-0.67 3.35 -0.34 1.7 0 0 Z " fill="#DEC80A" transform="translate(255,402)"/>
<path d="M0 0 C2.67901932 2.31881505 3.66204403 4.31814468 4.6875 7.6875 C4.93886719 8.49574219 5.19023437 9.30398438 5.44921875 10.13671875 C5.63097656 10.75160156 5.81273437 11.36648438 6 12 C5.34 12 4.68 12 4 12 C3.32645501 10.56570999 2.66140299 9.12742943 2 7.6875 C1.62875 6.88699219 1.2575 6.08648437 0.875 5.26171875 C0 3 0 3 0 0 Z " fill="#191F3B" transform="translate(199,271)"/>
<path d="M0 0 C2.76171646 3.51491186 4.58665064 6.75995191 6 11 C5.34 11.66 4.68 12.32 4 13 C3.32694982 11.39850114 2.66177773 9.79368971 2 8.1875 C1.62875 7.29417969 1.2575 6.40085937 0.875 5.48046875 C0 3 0 3 0 0 Z " fill="#0A0F29" transform="translate(252,286)"/>
<path d="M0 0 C0.66 0 1.32 0 2 0 C2.66 3.3 3.32 6.6 4 10 C3.01 9.67 2.02 9.34 1 9 C0.67 6.03 0.34 3.06 0 0 Z " fill="#E1C40A" transform="translate(113,176)"/>
<path d="M0 0 C0.33 0 0.66 0 1 0 C1 1.98 1 3.96 1 6 C1.66 6.33 2.32 6.66 3 7 C1.68 7.99 0.36 8.98 -1 10 C-1.66 9.67 -2.32 9.34 -3 9 C-2.01 6.03 -1.02 3.06 0 0 Z " fill="#D5C50C" transform="translate(242,92)"/>
<path d="M0 0 C3.55780196 0.60990891 6.6828589 1.5783681 10 3 C10 3.66 10 4.32 10 5 C6.44219804 4.39009109 3.3171411 3.4216319 0 2 C0 1.34 0 0.68 0 0 Z " fill="#233859" transform="translate(155,477)"/>
<path d="M0 0 C0.33 0 0.66 0 1 0 C1 1.65 1 3.3 1 5 C1.99 5.33 2.98 5.66 4 6 C0.25 9 0.25 9 -2 9 C-1.34 6.03 -0.68 3.06 0 0 Z " fill="#DCC90A" transform="translate(396,357)"/>
<path d="M0 0 C5.28 0 10.56 0 16 0 C16 0.99 16 1.98 16 3 C15.01 2.67 14.02 2.34 13 2 C10.77425665 1.77548542 8.54418481 1.59217122 6.3125 1.4375 C5.13300781 1.35371094 3.95351563 1.26992187 2.73828125 1.18359375 C1.83464844 1.12300781 0.93101562 1.06242188 0 1 C0 0.67 0 0.34 0 0 Z " fill="#F4B703" transform="translate(418,158)"/>
<path d="M0 0 C1.64826111 2.96687001 2.44271087 5.65626525 3 9 C1.68 8.34 0.36 7.68 -1 7 C-1 4.37886292 -0.68707555 2.49064888 0 0 Z " fill="#D6C40D" transform="translate(179,424)"/>
<path d="M0 0 C0.66 0.33 1.32 0.66 2 1 C2.625 3.5625 2.625 3.5625 3 6 C2.34 6 1.68 6 1 6 C0.67 6.66 0.34 7.32 0 8 C-0.66 8 -1.32 8 -2 8 C-1.34 5.36 -0.68 2.72 0 0 Z " fill="#D9C20D" transform="translate(165,381)"/>
<path d="M0 0 C0.66 0.33 1.32 0.66 2 1 C2.625 3.5625 2.625 3.5625 3 6 C1.68 6 0.36 6 -1 6 C-1.042721 4.33388095 -1.04063832 2.66617115 -1 1 C-0.67 0.67 -0.34 0.34 0 0 Z " fill="#EBC206" transform="translate(91,268)"/>
<path d="M0 0 C0 0.33 0 0.66 0 1 C-1.98 1 -3.96 1 -6 1 C-6 1.66 -6 2.32 -6 3 C-8.64 2.67 -11.28 2.34 -14 2 C-14 1.67 -14 1.34 -14 1 C-9.23692563 0.04738513 -4.8333472 -0.08333357 0 0 Z " fill="#2F4866" transform="translate(235,13)"/>
<path d="M0 0 C0.66 0.33 1.32 0.66 2 1 C2 1.66 2 2.32 2 3 C1.34 3 0.68 3 0 3 C-0.66 5.31 -1.32 7.62 -2 10 C-2.66 10 -3.32 10 -4 10 C-3.52449439 8.51965236 -3.04448784 7.04074979 -2.5625 5.5625 C-2.29566406 4.73878906 -2.02882813 3.91507812 -1.75390625 3.06640625 C-1 1 -1 1 0 0 Z " fill="#111A36" transform="translate(291,322)"/>
<path d="M0 0 C0.66 0 1.32 0 2 0 C0.125 6.75 0.125 6.75 -1 9 C-1.66 9 -2.32 9 -3 9 C-2.01 6.03 -1.02 3.06 0 0 Z " fill="#191F35" transform="translate(324,242)"/>
<path d="M0 0 C0.66 0 1.32 0 2 0 C2.33 1.98 2.66 3.96 3 6 C1.68 6 0.36 6 -1 6 C-0.67 4.02 -0.34 2.04 0 0 Z " fill="#CFB70F" transform="translate(432,226)"/>
<path d="M0 0 C0.99 0.33 1.98 0.66 3 1 C2.39816251 3.02045442 1.72693904 5.02111039 1 7 C0.01 7.495 0.01 7.495 -1 8 C-0.67 5.36 -0.34 2.72 0 0 Z " fill="#EBC106" transform="translate(251,63)"/>
<path d="M0 0 C1 2 1 2 0.25 4.5625 C-1 7 -1 7 -4 8 C-3.40138258 5.64828869 -2.73075648 3.3140622 -2 1 C-1.34 0.67 -0.68 0.34 0 0 Z " fill="#E0E2E4" transform="translate(279,246)"/>
<path d="M0 0 C2.12508244 3.18762365 2.5020163 5.26512223 3 9 C2.34 9 1.68 9 1 9 C-1.125 2.25 -1.125 2.25 0 0 Z " fill="#D3B70C" transform="translate(347,77)"/>
</svg>
